<svg width="35" height="35" viewBox="0 0 35 35" fill="none" xmlns="http://www.w3.org/2000/svg">
<g clip-path="url(#clip0)">
<path d="M13.9806 0.109375C6.66088 0.109375 0.705994 6.06426 0.705994 13.3839C0.705994 20.7036 6.66088 26.6585 13.9806 26.6585C16.9093 26.6585 19.616 25.7044 21.8125 24.0928C21.8125 24.0928 23.2873 25.5364 23.3578 25.5613C23.3578 25.5737 23.3557 25.5841 23.3557 25.5965C23.3557 26.3059 23.6316 26.9738 24.1335 27.4736L29.6259 32.966C30.1444 33.4845 30.8226 33.7417 31.503 33.7417C32.1833 33.7417 32.8636 33.4845 33.3801 32.966L33.5626 32.7814C34.0645 32.2815 34.3404 31.6157 34.3404 30.9064C34.3404 30.197 34.0645 29.5291 33.5626 29.0292L28.0702 23.5369C27.5434 23.0101 26.8507 22.7549 26.16 22.7653C26.133 22.6927 24.6894 21.2159 24.6894 21.2159C26.301 19.0194 27.2551 16.3126 27.2551 13.3839C27.2551 6.06426 21.3002 0.109375 13.9806 0.109375ZM13.9806 1.17134C20.7153 1.17134 26.1931 6.64917 26.1931 13.3839C26.1931 20.1187 20.7153 25.5965 13.9806 25.5965C7.24579 25.5965 1.76796 20.1187 1.76796 13.3839C1.76796 6.64917 7.24579 1.17134 13.9806 1.17134ZM13.9806 3.29527C11.2862 3.29527 8.75162 4.34479 6.84548 6.24886C2.91289 10.1835 2.91289 16.5843 6.84548 20.5169C8.75162 22.4231 11.2862 23.4726 13.9806 23.4726C16.6749 23.4726 19.2095 22.4231 21.1156 20.519C25.0482 16.5843 25.0482 10.1835 21.1156 6.24886C19.2095 4.34479 16.6749 3.29527 13.9806 3.29527ZM13.9806 4.35723C16.3907 4.35723 18.6578 5.29682 20.3627 7.00178C23.8825 10.5195 23.8825 16.2483 20.3627 19.7661C18.6578 21.471 16.3907 22.4106 13.9806 22.4106C11.5704 22.4106 9.30334 21.471 7.59839 19.7661C4.07856 16.2483 4.07856 10.5216 7.59839 7.00178C9.30334 5.29682 11.5704 4.35723 13.9806 4.35723ZM13.8789 5.95018C11.9479 5.973 10.106 6.74458 8.72258 8.12596C8.51517 8.33545 8.51517 8.66939 8.72258 8.87888C8.82629 8.98051 8.96318 9.03444 9.10008 9.03444C9.2349 9.03444 9.37179 8.98051 9.4755 8.87888C10.8278 7.52446 12.6967 6.85451 14.6069 7.04326C14.8994 7.06815 15.1587 6.85866 15.1877 6.5662C15.2167 6.27375 15.0031 6.01448 14.7107 5.98544C14.4327 5.95848 14.1548 5.94603 13.8789 5.95018ZM17.6228 6.94577C17.4195 6.91674 17.2059 7.01007 17.0918 7.19882C16.9404 7.44979 17.0213 7.77543 17.2743 7.92685C17.7099 8.19234 18.1185 8.51176 18.4856 8.87888C18.5893 8.98259 18.7241 9.03444 18.861 9.03444C18.9979 9.03444 19.1327 8.98259 19.2385 8.87888C19.4439 8.67147 19.4439 8.33545 19.2385 8.12804C18.8092 7.70076 18.3321 7.32742 17.8219 7.01837C17.7597 6.98103 17.6912 6.95614 17.6228 6.94577ZM6.5468 12.853C6.25434 12.853 6.01582 13.0894 6.01582 13.3839C6.01582 13.6785 6.25434 13.9149 6.5468 13.9149H7.60876C7.90122 13.9149 8.13975 13.6785 8.13975 13.3839C8.13975 13.0894 7.90122 12.853 7.60876 12.853H6.5468ZM20.3523 12.853C20.0599 12.853 19.8214 13.0894 19.8214 13.3839C19.8214 13.6785 20.0599 13.9149 20.3523 13.9149H21.4143C21.7068 13.9149 21.9453 13.6785 21.9453 13.3839C21.9453 13.0894 21.7068 12.853 21.4143 12.853H20.3523ZM8.08167 15.2403C8.01322 15.2382 7.94063 15.2507 7.87425 15.2776L6.88903 15.6759C6.61732 15.7858 6.48665 16.0948 6.59658 16.3666C6.67954 16.574 6.87866 16.7005 7.08815 16.7005C7.15452 16.7005 7.22297 16.6881 7.28727 16.6611L8.27249 16.2629C8.54421 16.1529 8.67488 15.8439 8.56495 15.5722C8.48198 15.3689 8.28908 15.2424 8.08167 15.2403ZM19.8462 15.3419C19.6388 15.3419 19.4418 15.4643 19.3567 15.6655C19.2427 15.9372 19.3671 16.2483 19.6388 16.3624L20.6158 16.7772C20.6821 16.8063 20.7526 16.8187 20.8232 16.8187C21.0306 16.8187 21.2256 16.6984 21.3127 16.4952C21.4267 16.2255 21.3002 15.9144 21.0306 15.8003L20.0537 15.3855C19.9852 15.3565 19.9147 15.3419 19.8462 15.3419ZM9.4755 17.358C9.3386 17.358 9.20378 17.4099 9.10008 17.5136L8.34924 18.2644C8.14182 18.4718 8.14182 18.8078 8.34924 19.0153C8.45294 19.119 8.58776 19.1708 8.72466 19.1708C8.86155 19.1708 8.99637 19.119 9.10008 19.0153L9.85092 18.2644C10.0583 18.057 10.0583 17.721 9.85092 17.5136C9.74721 17.4099 9.61032 17.358 9.4755 17.358ZM18.4856 17.358C18.3508 17.358 18.2139 17.4099 18.1102 17.5136C17.9028 17.721 17.9028 18.057 18.1102 18.2644L18.861 19.0153C18.9647 19.119 19.0996 19.1708 19.2364 19.1708C19.3733 19.1708 19.5082 19.119 19.6119 19.0153C19.8193 18.8078 19.8193 18.4718 19.6119 18.2644L18.861 17.5136C18.7573 17.4099 18.6204 17.358 18.4856 17.358ZM11.4916 18.7186C11.2842 18.7186 11.0871 18.8389 11.0021 19.0422L10.5872 20.0191C10.4732 20.2888 10.5997 20.602 10.8693 20.7161C10.9378 20.7451 11.0062 20.7575 11.0767 20.7575C11.2821 20.7575 11.4791 20.6352 11.5662 20.434L11.9811 19.457C12.0951 19.1874 11.9686 18.8742 11.699 18.7601C11.6305 18.7311 11.56 18.7186 11.4916 18.7186ZM16.3762 18.7601C16.3077 18.7601 16.2352 18.7726 16.1688 18.7995C15.895 18.9095 15.7643 19.2185 15.8743 19.4902L16.2725 20.4755C16.3555 20.6829 16.5546 20.8073 16.7661 20.8073C16.8325 20.8073 16.8989 20.7949 16.9653 20.7679C17.237 20.658 17.3676 20.3489 17.2577 20.0772L16.8595 19.092C16.7765 18.8887 16.5836 18.7643 16.3762 18.7601ZM13.9806 19.2247C13.6881 19.2247 13.4496 19.4612 13.4496 19.7557V20.8177C13.4496 21.1122 13.6881 21.3487 13.9806 21.3487C14.273 21.3487 14.5115 21.1122 14.5115 20.8177V19.7557C14.5115 19.4612 14.273 19.2247 13.9806 19.2247ZM24.0215 22.0518L25.0171 23.0495C24.7661 23.1739 24.5255 23.3295 24.316 23.539L24.1335 23.7194C23.9261 23.9268 23.7705 24.1654 23.644 24.4184L22.6484 23.4249C23.14 23.0018 23.5984 22.5434 24.0215 22.0518ZM26.1931 23.8211C26.6018 23.8211 27.0104 23.9766 27.3215 24.2877L32.8138 29.7801C33.1146 30.0808 33.2784 30.4812 33.2784 30.9064C33.2784 31.3316 33.1125 31.7319 32.8118 32.0326L32.6292 32.2151C32.007 32.8353 30.9989 32.8353 30.3767 32.2151L24.8844 26.7228C24.5836 26.422 24.4177 26.0217 24.4177 25.5965C24.4177 25.1713 24.5836 24.771 24.8844 24.4703L25.0669 24.2877C25.378 23.9766 25.7866 23.8211 26.1931 23.8211Z" fill="url(#paint0_linear)"/>
</g>
<defs>
<linearGradient id="paint0_linear" x1="1.30659" y1="3.56731" x2="28.4087" y2="30.6008" gradientUnits="userSpaceOnUse">
<stop stop-color="#B6F492"/>
<stop offset="1" stop-color="#338B93"/>
</linearGradient>
<clipPath id="clip0">
<rect width="33.9829" height="33.9829" fill="white" transform="translate(0.705994 0.109375)"/>
</clipPath>
</defs>
</svg>
