<svg width="42" height="43" viewBox="0 0 42 43" fill="none" xmlns="http://www.w3.org/2000/svg">
<path d="M20.9589 2.40031C20.6372 2.39762 20.3145 2.51383 20.0603 2.74877L3.05102 17.1695C2.7955 17.4146 2.64896 17.7586 2.64896 18.1128V20.2227C2.64896 20.7468 2.96124 21.2185 3.44288 21.4251C3.92648 21.6303 4.482 21.5293 4.83032 21.194L5.26302 20.829V36.7852C5.26302 37.5061 5.84923 38.0923 6.57006 38.0923H15.7193C16.4401 38.0923 17.0263 37.5061 17.0263 36.7852V26.329H24.8685V36.7852C24.8685 37.5061 25.4547 38.0923 26.1756 38.0923H29.1725C29.5215 38.0923 29.8496 37.9564 30.0967 37.7094L36.2489 31.5571C36.4959 31.3101 36.6318 30.982 36.6318 30.633V21.4621L37.0339 21.8169C37.2829 22.0554 37.6082 22.182 37.9389 22.182C38.1114 22.182 38.2853 22.1479 38.452 22.0773C38.9343 21.8714 39.2472 21.3997 39.2472 20.8749V18.765C39.2472 18.4115 39.0992 18.0666 38.8247 17.8039L21.8524 2.76409C21.6014 2.52425 21.2806 2.40301 20.9589 2.40031ZM20.9666 3.72522L37.9389 18.765L37.9197 20.8571L21.8026 6.60733C21.5575 6.39036 21.2476 6.28185 20.9372 6.28185C20.6366 6.28185 20.3353 6.38428 20.0935 6.58818L3.95599 20.2227L3.92663 18.1396L20.9181 3.73415L20.9525 3.73926L20.9666 3.72522ZM20.9372 7.58633L35.349 20.3274C35.3412 20.3677 35.3248 20.4047 35.3248 20.4473V30.2501H30.0967C29.3758 30.2501 28.7896 30.8363 28.7896 31.5571V36.7852H26.1756V26.329C26.1756 25.6082 25.5894 25.0219 24.8685 25.0219H17.0263C16.3055 25.0219 15.7193 25.6082 15.7193 26.329V36.7852H6.57006V19.7938C6.57006 19.7726 6.56056 19.7546 6.55857 19.7338L20.9372 7.58633ZM20.9474 13.9122C18.7849 13.9122 17.0263 15.6708 17.0263 17.8333C17.0263 19.9958 18.7849 21.7544 20.9474 21.7544C23.1099 21.7544 24.8685 19.9958 24.8685 17.8333C24.8685 15.6708 23.1099 13.9122 20.9474 13.9122ZM20.9474 15.2192C22.3891 15.2192 23.5615 16.3916 23.5615 17.8333C23.5615 19.2749 22.3891 20.4473 20.9474 20.4473C19.5058 20.4473 18.3334 19.2749 18.3334 17.8333C18.3334 16.3916 19.5058 15.2192 20.9474 15.2192ZM30.0967 31.5571H34.4007L30.0967 35.8611V31.5571ZM7.87709 32.8641C7.51635 32.8641 7.22357 33.1569 7.22357 33.5177V34.8247C7.22357 35.1854 7.51635 35.4782 7.87709 35.4782C8.23783 35.4782 8.53061 35.1854 8.53061 34.8247V33.5177C8.53061 33.1569 8.23783 32.8641 7.87709 32.8641ZM11.1447 32.8641C10.7839 32.8641 10.4912 33.1569 10.4912 33.5177V34.8247C10.4912 35.1854 10.7839 35.4782 11.1447 35.4782C11.5054 35.4782 11.7982 35.1854 11.7982 34.8247V33.5177C11.7982 33.1569 11.5054 32.8641 11.1447 32.8641ZM14.4123 32.8641C14.0515 32.8641 13.7587 33.1569 13.7587 33.5177V34.8247C13.7587 35.1854 14.0515 35.4782 14.4123 35.4782C14.773 35.4782 15.0658 35.1854 15.0658 34.8247V33.5177C15.0658 33.1569 14.773 32.8641 14.4123 32.8641Z" fill="#1E2B16"/>
</svg>
