<svg width="48" height="48" viewBox="0 0 48 48" fill="none" xmlns="http://www.w3.org/2000/svg">
    <path d="M7.98147 0.537109C7.8799 0.537109 7.78811 0.598633 7.75002 0.693359L5.78225 5.51465L0.439473 6.00098C0.34084 6.00977 0.25588 6.07715 0.22463 6.17285C0.194356 6.26855 0.222677 6.37207 0.297872 6.43848L4.33107 9.96484L3.09182 15.0293C3.0674 15.1279 3.10647 15.2314 3.18752 15.291C3.27053 15.3506 3.3799 15.3545 3.46584 15.3008L7.98147 12.5068L12.4971 15.3008C12.5371 15.3262 12.583 15.3389 12.6289 15.3389C12.6797 15.3389 12.7315 15.3232 12.7754 15.291C12.8574 15.2314 12.8955 15.1279 12.8711 15.0293L11.6328 9.96484L15.6651 6.43848C15.7403 6.37207 15.7686 6.26855 15.7383 6.17285C15.7071 6.07715 15.6221 6.00977 15.5235 6.00098L10.1797 5.51465L8.21291 0.693359C8.17482 0.598633 8.08303 0.537109 7.98147 0.537109ZM7.98147 1.44922L9.77443 5.84473C9.81057 5.93164 9.89064 5.99023 9.98342 5.99902L14.8955 6.44629L13.75 7.44824V7.25C13.75 7.11133 13.6387 7 13.5 7C13.3613 7 13.25 7.11133 13.25 7.25V7.5C13.25 7.61035 13.3233 7.70117 13.4229 7.73438L11.1885 9.6875C11.1192 9.74902 11.0879 9.84473 11.1104 9.93555L12.2412 14.5547L8.1133 12C8.07229 11.9746 8.02736 11.9629 7.98147 11.9629C7.93557 11.9629 7.88967 11.9746 7.84963 12L3.72268 14.5547L4.85256 9.93555C4.87502 9.84473 4.84475 9.74902 4.77443 9.6875L2.44436 7.65137C2.47756 7.6084 2.50002 7.55762 2.50002 7.5V7.25C2.50002 7.11133 2.38869 7 2.25002 7C2.11135 7 2.00002 7.11133 2.00002 7.25V7.2627L1.06643 6.44629L5.97951 5.99902C6.07229 5.99023 6.15236 5.93164 6.18752 5.84473L7.98147 1.44922ZM3.50002 7C3.36135 7 3.25002 7.11133 3.25002 7.25V7.75C3.25002 7.88867 3.36135 8 3.50002 8C3.63869 8 3.75002 7.88867 3.75002 7.75V7.25C3.75002 7.11133 3.63869 7 3.50002 7ZM4.75002 7C4.61135 7 4.50002 7.11133 4.50002 7.25V7.75C4.50002 7.88867 4.61135 8 4.75002 8C4.88869 8 5.00002 7.88867 5.00002 7.75V7.25C5.00002 7.11133 4.88869 7 4.75002 7ZM6.00002 7C5.86135 7 5.75002 7.11133 5.75002 7.25V7.75C5.75002 7.88867 5.86135 8 6.00002 8C6.13869 8 6.25002 7.88867 6.25002 7.75V7.25C6.25002 7.11133 6.13869 7 6.00002 7ZM7.25002 7C7.11135 7 7.00002 7.11133 7.00002 7.25V7.75C7.00002 7.88867 7.11135 8 7.25002 8C7.38869 8 7.50002 7.88867 7.50002 7.75V7.25C7.50002 7.11133 7.38869 7 7.25002 7ZM8.50002 7C8.36135 7 8.25002 7.11133 8.25002 7.25V7.75C8.25002 7.88867 8.36135 8 8.50002 8C8.63869 8 8.75002 7.88867 8.75002 7.75V7.25C8.75002 7.11133 8.63869 7 8.50002 7ZM9.75002 7C9.61135 7 9.50002 7.11133 9.50002 7.25V7.75C9.50002 7.88867 9.61135 8 9.75002 8C9.88869 8 10 7.88867 10 7.75V7.25C10 7.11133 9.88869 7 9.75002 7ZM11 7C10.8613 7 10.75 7.11133 10.75 7.25V7.75C10.75 7.88867 10.8613 8 11 8C11.1387 8 11.25 7.88867 11.25 7.75V7.25C11.25 7.11133 11.1387 7 11 7ZM12.25 7C12.1113 7 12 7.11133 12 7.25V7.75C12 7.88867 12.1113 8 12.25 8C12.3887 8 12.5 7.88867 12.5 7.75V7.25C12.5 7.11133 12.3887 7 12.25 7ZM6.25002 9C6.11135 9 6.00002 9.11133 6.00002 9.25C6.00002 9.38867 6.11135 9.5 6.25002 9.5H9.75002C9.88869 9.5 10 9.38867 10 9.25C10 9.11133 9.88869 9 9.75002 9H6.25002Z" fill="#1E2B16" />
</svg>
