<svg width="43" height="43" fill="none" xmlns="http://www.w3.org/2000/svg">
    <defs>
        <linearGradient id="paint0_linear" x1="2.542" y1="9.546" x2="23.343" y2="39.184" gradientUnits="userSpaceOnUse">
            <stop stop-color="#B6F492"/>
            <stop offset="1" stop-color="#338B93"/>
        </linearGradient>
    </defs>
  <path d="M3.802 6.723c-1.08 0-1.96.88-1.96 1.961v23.527c0 1.08.88 1.96 1.96 1.96h35.29c1.081 0 1.96-.88 1.96-1.96V8.684c0-1.08-.879-1.96-1.96-1.96H3.802zm0 1.307h35.29c.36 0 .654.294.654.654v4.779L22.25 22.636a1.948 1.948 0 01-1.573.02l-17.528-9.14V8.683c0-.36.293-.654.653-.654zm35.944 6.908v17.273c0 .36-.294.653-.654.653H3.802a.655.655 0 01-.653-.653V14.989l16.958 8.842c.42.188.87.283 1.326.283.468 0 .94-.1 1.39-.303l16.923-8.873zM5.109 28.943a.654.654 0 00-.653.653v1.308a.654.654 0 001.307 0v-1.308a.654.654 0 00-.654-.653zm3.268 0a.654.654 0 00-.653.653v1.308a.654.654 0 001.307 0v-1.308a.654.654 0 00-.654-.653zm3.268 0a.654.654 0 00-.654.653v1.308a.654.654 0 001.307 0v-1.308a.654.654 0 00-.653-.653zm3.267 0a.654.654 0 00-.653.653v1.308a.654.654 0 001.307 0v-1.308a.654.654 0 00-.654-.653zm3.268 0a.654.654 0 00-.654.653v1.308a.654.654 0 001.307 0v-1.308a.654.654 0 00-.653-.653zm3.267 0a.654.654 0 00-.653.653v1.308a.654.654 0 001.307 0v-1.308a.654.654 0 00-.654-.653zm3.268 0a.654.654 0 00-.654.653v1.308a.654.654 0 001.308 0v-1.308a.654.654 0 00-.654-.653zm3.268 0a.654.654 0 00-.654.653v1.308a.654.654 0 001.307 0v-1.308a.654.654 0 00-.653-.653zm3.267 0a.654.654 0 00-.653.653v1.308a.654.654 0 001.307 0v-1.308a.654.654 0 00-.654-.653zm3.268 0a.654.654 0 00-.654.653v1.308a.654.654 0 001.307 0v-1.308a.654.654 0 00-.653-.653zm3.267 0a.654.654 0 00-.653.653v1.308a.654.654 0 001.307 0v-1.308a.654.654 0 00-.654-.653z" fill="url(#paint0_linear)"/>
</svg>
