<svg width="43" height="43" viewBox="0 0 43 43" fill="none" xmlns="http://www.w3.org/2000/svg">
<path d="M3.80247 6.72351C2.72155 6.72351 1.84192 7.60314 1.84192 8.68406V32.2107C1.84192 33.2916 2.72155 34.1712 3.80247 34.1712H39.0924C40.1733 34.1712 41.0529 33.2916 41.0529 32.2107V8.68406C41.0529 7.60314 40.1733 6.72351 39.0924 6.72351H3.80247ZM3.80247 8.03054H39.0924C39.4525 8.03054 39.7459 8.32397 39.7459 8.68406V13.4629L22.2503 22.6364C21.7392 22.8671 21.1529 22.8679 20.6765 22.6555L3.14895 13.5152V8.68406C3.14895 8.32397 3.44238 8.03054 3.80247 8.03054ZM39.7459 14.9384V32.2107C39.7459 32.5707 39.4525 32.8642 39.0924 32.8642H3.80247C3.44238 32.8642 3.14895 32.5707 3.14895 32.2107V14.9895L20.1072 23.8311C20.5274 24.0193 20.9779 24.1145 21.4334 24.1145C21.9006 24.1145 22.3738 24.0139 22.8234 23.8107L39.7459 14.9384ZM5.1095 28.9431C4.74876 28.9431 4.45599 29.2359 4.45599 29.5966V30.9036C4.45599 31.2644 4.74876 31.5571 5.1095 31.5571C5.47024 31.5571 5.76302 31.2644 5.76302 30.9036V29.5966C5.76302 29.2359 5.47024 28.9431 5.1095 28.9431ZM8.37709 28.9431C8.01635 28.9431 7.72357 29.2359 7.72357 29.5966V30.9036C7.72357 31.2644 8.01635 31.5571 8.37709 31.5571C8.73783 31.5571 9.0306 31.2644 9.0306 30.9036V29.5966C9.0306 29.2359 8.73783 28.9431 8.37709 28.9431ZM11.6447 28.9431C11.2839 28.9431 10.9912 29.2359 10.9912 29.5966V30.9036C10.9912 31.2644 11.2839 31.5571 11.6447 31.5571C12.0054 31.5571 12.2982 31.2644 12.2982 30.9036V29.5966C12.2982 29.2359 12.0054 28.9431 11.6447 28.9431ZM14.9123 28.9431C14.5515 28.9431 14.2587 29.2359 14.2587 29.5966V30.9036C14.2587 31.2644 14.5515 31.5571 14.9123 31.5571C15.273 31.5571 15.5658 31.2644 15.5658 30.9036V29.5966C15.5658 29.2359 15.273 28.9431 14.9123 28.9431ZM18.1798 28.9431C17.8191 28.9431 17.5263 29.2359 17.5263 29.5966V30.9036C17.5263 31.2644 17.8191 31.5571 18.1798 31.5571C18.5406 31.5571 18.8334 31.2644 18.8334 30.9036V29.5966C18.8334 29.2359 18.5406 28.9431 18.1798 28.9431ZM21.4474 28.9431C21.0867 28.9431 20.7939 29.2359 20.7939 29.5966V30.9036C20.7939 31.2644 21.0867 31.5571 21.4474 31.5571C21.8082 31.5571 22.1009 31.2644 22.1009 30.9036V29.5966C22.1009 29.2359 21.8082 28.9431 21.4474 28.9431ZM24.715 28.9431C24.3543 28.9431 24.0615 29.2359 24.0615 29.5966V30.9036C24.0615 31.2644 24.3543 31.5571 24.715 31.5571C25.0757 31.5571 25.3685 31.2644 25.3685 30.9036V29.5966C25.3685 29.2359 25.0757 28.9431 24.715 28.9431ZM27.9826 28.9431C27.6218 28.9431 27.3291 29.2359 27.3291 29.5966V30.9036C27.3291 31.2644 27.6218 31.5571 27.9826 31.5571C28.3433 31.5571 28.6361 31.2644 28.6361 30.9036V29.5966C28.6361 29.2359 28.3433 28.9431 27.9826 28.9431ZM31.2502 28.9431C30.8894 28.9431 30.5967 29.2359 30.5967 29.5966V30.9036C30.5967 31.2644 30.8894 31.5571 31.2502 31.5571C31.6109 31.5571 31.9037 31.2644 31.9037 30.9036V29.5966C31.9037 29.2359 31.6109 28.9431 31.2502 28.9431ZM34.5178 28.9431C34.157 28.9431 33.8642 29.2359 33.8642 29.5966V30.9036C33.8642 31.2644 34.157 31.5571 34.5178 31.5571C34.8785 31.5571 35.1713 31.2644 35.1713 30.9036V29.5966C35.1713 29.2359 34.8785 28.9431 34.5178 28.9431ZM37.7853 28.9431C37.4246 28.9431 37.1318 29.2359 37.1318 29.5966V30.9036C37.1318 31.2644 37.4246 31.5571 37.7853 31.5571C38.1461 31.5571 38.4389 31.2644 38.4389 30.9036V29.5966C38.4389 29.2359 38.1461 28.9431 37.7853 28.9431Z" fill="#1E2B16"/>
</svg>
